<mxfile host="app.diagrams.net" modified="2024-06-15T13:24:35.319Z" agent="Mozilla/5.0 (Windows NT 10.0; Win64; x64) AppleWebKit/537.36 (KHTML, like Gecko) Chrome/126.0.0.0 Safari/537.36" version="24.4.10" etag="k0MtDumVZ85NYaIVUQvf" type="github">
  <diagram name="Страница — 1" id="Ixa2YOl9Yf2ptmsoM93s">
    <mxGraphModel>
      <root>
        <mxCell id="0" />
        <mxCell id="1" parent="0" />
      </root>
    </mxGraphModel>
  </diagram>
</mxfile>
